<?xml version="1.0" encoding="utf-8"?>
<!-- Generator: Adobe Illustrator 21.0.2, SVG Export Plug-In . SVG Version: 6.00 Build 0)  -->
<svg version="1.1" id="Capa_1" xmlns="http://www.w3.org/2000/svg" xmlns:xlink="http://www.w3.org/1999/xlink" x="0px" y="0px"
	 viewBox="0 0 386.6 386.6" style="enable-background:new 0 0 386.6 386.6;" xml:space="preserve">
<style type="text/css">
	.st0{fill:#FFFFFF;}
</style>
<g>
	<g>
		<path class="st0" d="M323.5,173.1c-7.2,0-13.9,2-19.8,5.3c-3.5-18.4-19.6-32.3-39-32.3c-7.9,0-15.2,2.3-21.4,6.3
			c-5.8-14.8-20.1-25.3-37-25.3c-7.4,0-14.3,2.1-20.2,5.6V39.7c0-21.9-17.8-39.7-39.7-39.7c-21.9,0-39.7,17.8-39.7,39.7v179.2
			l-14.1-15.8c-14.6-16.4-39.7-17.9-56.1-3.3c-16.4,14.6-17.9,39.7-3.3,56.1l86.6,97.5c17.4,17,47.1,33.2,72.7,33.2h85.3
			c47.1,0,85.3-34.2,85.3-76.4l0-97.4C363.3,190.9,345.5,173.1,323.5,173.1z"/>
	</g>
</g>
</svg>
