<?xml version="1.0" encoding="utf-8"?>
<!-- Generator: Adobe Illustrator 21.0.2, SVG Export Plug-In . SVG Version: 6.00 Build 0)  -->
<svg version="1.1" id="Layer_1" xmlns="http://www.w3.org/2000/svg" xmlns:xlink="http://www.w3.org/1999/xlink" x="0px" y="0px"
	 viewBox="0 0 1440 900" style="enable-background:new 0 0 1440 900;" xml:space="preserve">
<style type="text/css">
	.st0{opacity:0.35;}
	.st1{opacity:0.35;fill-rule:evenodd;clip-rule:evenodd;fill:url(#SVGID_1_);}
	.st2{opacity:0.35;fill-rule:evenodd;clip-rule:evenodd;fill:url(#SVGID_2_);}
	.st3{opacity:0.35;fill-rule:evenodd;clip-rule:evenodd;fill:url(#SVGID_3_);}
	.st4{opacity:0.35;fill-rule:evenodd;clip-rule:evenodd;fill:url(#SVGID_4_);}
	.st5{opacity:0.35;fill-rule:evenodd;clip-rule:evenodd;fill:url(#SVGID_5_);}
	.st6{opacity:0.35;fill-rule:evenodd;clip-rule:evenodd;fill:url(#SVGID_6_);}
	.st7{fill-rule:evenodd;clip-rule:evenodd;fill:url(#SVGID_7_);}
	.st8{opacity:0.35;fill-rule:evenodd;clip-rule:evenodd;fill:url(#SVGID_8_);}
	.st9{opacity:0.35;fill-rule:evenodd;clip-rule:evenodd;fill:url(#SVGID_9_);}
	.st10{opacity:0.35;fill-rule:evenodd;clip-rule:evenodd;fill:url(#SVGID_10_);}
	.st11{opacity:0.35;fill-rule:evenodd;clip-rule:evenodd;fill:url(#SVGID_11_);}
	.st12{opacity:0.35;fill-rule:evenodd;clip-rule:evenodd;fill:url(#SVGID_12_);}
	.st13{opacity:0.35;fill-rule:evenodd;clip-rule:evenodd;fill:url(#SVGID_13_);}
	.st14{fill-rule:evenodd;clip-rule:evenodd;fill:url(#SVGID_14_);}
</style>
<g class="st0">
	<g>
		<g>
			
				<linearGradient id="SVGID_1_" gradientUnits="userSpaceOnUse" x1="-759.0808" y1="215.3638" x2="-472.0366" y2="-281.8114" gradientTransform="matrix(0 1 -1 0 253.9157 701.0531)">
				<stop  offset="0" style="stop-color:#D6DD70"/>
				<stop  offset="1" style="stop-color:#D6DD70;stop-opacity:0"/>
			</linearGradient>
			<path class="st1" d="M3.9,1.9h574c0,158.5-64.2,302-168.1,405.9L3.9,1.9z"/>
			
				<linearGradient id="SVGID_2_" gradientUnits="userSpaceOnUse" x1="-140.562" y1="41.3845" x2="146.4822" y2="-455.7907" gradientTransform="matrix(-0.4226 0.9063 -0.9063 -0.4226 43.1405 107.0973)">
				<stop  offset="0" style="stop-color:#5ABE91"/>
				<stop  offset="1" style="stop-color:#5ABE91;stop-opacity:0"/>
			</linearGradient>
			<path class="st2" d="M8.3,1.9l520.2,242.6c-67,143.7-185.9,246.6-323.9,296.8L8.3,1.9z"/>
			
				<linearGradient id="SVGID_3_" gradientUnits="userSpaceOnUse" x1="328.8066" y1="-523.593" x2="734.6807" y2="-523.593" gradientTransform="matrix(-0.7071 0.7071 -0.7071 -0.7071 69.1451 -397.8836)">
				<stop  offset="0" style="stop-color:#27A8E0"/>
				<stop  offset="1" style="stop-color:#27A8E0;stop-opacity:0"/>
			</linearGradient>
			<path class="st3" d="M3.9,1.9l405.9,405.9C297.7,519.9,150.8,575.9,3.9,575.9L3.9,1.9z"/>
		</g>
		<g>
			
				<linearGradient id="SVGID_4_" gradientUnits="userSpaceOnUse" x1="-759.0808" y1="-3136.2112" x2="-472.0366" y2="-3633.3862" gradientTransform="matrix(-4.489700e-11 1 1 4.489700e-11 3106.3743 701.0531)">
				<stop  offset="0" style="stop-color:#D6DD70"/>
				<stop  offset="1" style="stop-color:#D6DD70;stop-opacity:0"/>
			</linearGradient>
			<path class="st4" d="M-401.1,407.8C-505,303.9-569.2,160.4-569.2,1.9l574,0L-401.1,407.8z"/>
			
				<linearGradient id="SVGID_5_" gradientUnits="userSpaceOnUse" x1="-1556.9988" y1="-2996.1738" x2="-1269.9545" y2="-3493.3491" gradientTransform="matrix(0.4226 0.9063 0.9063 -0.4226 3317.1497 107.0973)">
				<stop  offset="0" style="stop-color:#5ABE91"/>
				<stop  offset="1" style="stop-color:#5ABE91;stop-opacity:0"/>
			</linearGradient>
			<path class="st5" d="M-195.9,541.3c-138-50.2-256.9-153.1-323.9-296.8L0.4,1.9L-195.9,541.3z"/>
			
				<linearGradient id="SVGID_6_" gradientUnits="userSpaceOnUse" x1="-2041.1147" y1="-2893.5144" x2="-1635.2407" y2="-2893.5144" gradientTransform="matrix(0.7071 0.7071 0.7071 -0.7071 3291.145 -397.8836)">
				<stop  offset="0" style="stop-color:#27A8E0"/>
				<stop  offset="1" style="stop-color:#27A8E0;stop-opacity:0"/>
			</linearGradient>
			<path class="st6" d="M4.8,575.9c-146.9,0-293.8-56-405.9-168.1L4.8,1.9L4.8,575.9z"/>
		</g>
		
			<linearGradient id="SVGID_7_" gradientUnits="userSpaceOnUse" x1="-710.8548" y1="245.5784" x2="-24.0531" y2="245.5784" gradientTransform="matrix(0 1 -1 0 253.9157 701.0531)">
			<stop  offset="0" style="stop-color:#005F8D"/>
			<stop  offset="1" style="stop-color:#FFFFFF"/>
		</linearGradient>
		<path class="st7" d="M3.8-9.8L249.4,627c-160.2,67.8-332.6,64.3-482,3.8L3.8-9.8z"/>
	</g>
</g>
<g class="st0">
	<g>
		<g>
			
				<linearGradient id="SVGID_8_" gradientUnits="userSpaceOnUse" x1="-759.0808" y1="-1220.6547" x2="-472.0366" y2="-1717.8298" gradientTransform="matrix(0 1 -1 0 253.9157 701.0531)">
				<stop  offset="0" style="stop-color:#D6DD70"/>
				<stop  offset="1" style="stop-color:#D6DD70;stop-opacity:0"/>
			</linearGradient>
			<path class="st8" d="M1440,1.9h574c0,158.5-64.2,302-168.1,405.9L1440,1.9z"/>
			
				<linearGradient id="SVGID_9_" gradientUnits="userSpaceOnUse" x1="-747.4496" y1="-1260.0902" x2="-460.4054" y2="-1757.2654" gradientTransform="matrix(-0.4226 0.9063 -0.9063 -0.4226 43.1405 107.0973)">
				<stop  offset="0" style="stop-color:#5ABE91"/>
				<stop  offset="1" style="stop-color:#5ABE91;stop-opacity:0"/>
			</linearGradient>
			<path class="st9" d="M1444.4,1.9l520.2,242.6c-67,143.7-185.9,246.6-323.9,296.8L1444.4,1.9z"/>
			
				<linearGradient id="SVGID_10_" gradientUnits="userSpaceOnUse" x1="-686.6119" y1="-1539.0115" x2="-280.7378" y2="-1539.0115" gradientTransform="matrix(-0.7071 0.7071 -0.7071 -0.7071 69.1451 -397.8836)">
				<stop  offset="0" style="stop-color:#27A8E0"/>
				<stop  offset="1" style="stop-color:#27A8E0;stop-opacity:0"/>
			</linearGradient>
			<path class="st10" d="M1440,1.9l405.9,405.9c-112.1,112.1-259,168.1-405.9,168.1L1440,1.9z"/>
		</g>
		<g>
			
				<linearGradient id="SVGID_11_" gradientUnits="userSpaceOnUse" x1="-759.0808" y1="-1700.1925" x2="-472.0366" y2="-2197.3677" gradientTransform="matrix(-4.489700e-11 1 1 4.489700e-11 3106.3743 701.0531)">
				<stop  offset="0" style="stop-color:#D6DD70"/>
				<stop  offset="1" style="stop-color:#D6DD70;stop-opacity:0"/>
			</linearGradient>
			<path class="st11" d="M1034.9,407.8C931,303.9,866.8,160.4,866.8,1.9l574,0L1034.9,407.8z"/>
			
				<linearGradient id="SVGID_12_" gradientUnits="userSpaceOnUse" x1="-950.1111" y1="-1694.6991" x2="-663.0669" y2="-2191.8743" gradientTransform="matrix(0.4226 0.9063 0.9063 -0.4226 3317.1497 107.0973)">
				<stop  offset="0" style="stop-color:#5ABE91"/>
				<stop  offset="1" style="stop-color:#5ABE91;stop-opacity:0"/>
			</linearGradient>
			<path class="st12" d="M1240.1,541.3c-138-50.2-256.9-153.1-323.9-296.8L1436.4,1.9L1240.1,541.3z"/>
			
				<linearGradient id="SVGID_13_" gradientUnits="userSpaceOnUse" x1="-1025.6963" y1="-1878.0959" x2="-619.8223" y2="-1878.0959" gradientTransform="matrix(0.7071 0.7071 0.7071 -0.7071 3291.145 -397.8836)">
				<stop  offset="0" style="stop-color:#27A8E0"/>
				<stop  offset="1" style="stop-color:#27A8E0;stop-opacity:0"/>
			</linearGradient>
			<path class="st13" d="M1440.8,575.9c-146.9,0-293.8-56-405.9-168.1L1440.8,1.9V575.9z"/>
		</g>
		
			<linearGradient id="SVGID_14_" gradientUnits="userSpaceOnUse" x1="-710.8548" y1="-1190.4402" x2="-24.0531" y2="-1190.4402" gradientTransform="matrix(0 1 -1 0 253.9157 701.0531)">
			<stop  offset="0" style="stop-color:#005F8D"/>
			<stop  offset="1" style="stop-color:#FFFFFF"/>
		</linearGradient>
		<path class="st14" d="M1439.8-9.8L1685.4,627c-160.2,67.8-332.6,64.3-482,3.8L1439.8-9.8z"/>
	</g>
</g>
</svg>
