<?xml version="1.0" encoding="utf-8"?>
<!-- Generator: Adobe Illustrator 21.0.2, SVG Export Plug-In . SVG Version: 6.00 Build 0)  -->
<svg version="1.1" id="Capa_1" xmlns="http://www.w3.org/2000/svg" xmlns:xlink="http://www.w3.org/1999/xlink" x="0px" y="0px"
	 viewBox="0 0 512 512" style="enable-background:new 0 0 512 512;" xml:space="preserve">
<style type="text/css">
	.st0{fill:#FFFFFF;}
</style>
<g>
	<g>
		<path class="st0" d="M66,0v512h380V0H66z M138.9,224.5c0-25.1,13.2-47.1,32.9-59.6c-7.8-8.9-12.6-20.5-12.6-33.2
			c0-27.7,22.5-50.2,50.2-50.2s50.2,22.5,50.2,50.2c0,12.7-4.8,24.4-12.6,33.2c19.8,12.5,32.9,34.5,32.9,59.6v15h-141V224.5z
			 M373.3,430.5H138.7v-30h234.7V430.5z M373.3,366.5H138.7v-30h234.7V366.5z M373.3,302.5H138.7v-30h234.7V302.5z M373.3,239.5h-64
			v-30h64V239.5z M373.3,175.5h-64v-30h64V175.5z M373.3,112.5h-64v-30h64V112.5z"/>
	</g>
</g>
<g>
	<g>
		<path class="st0" d="M209.4,111.5c-11.1,0-20.2,9.1-20.2,20.2s9.1,20.2,20.2,20.2c11.1,0,20.2-9.1,20.2-20.2
			C229.6,120.6,220.5,111.5,209.4,111.5z"/>
	</g>
</g>
<g>
	<g>
		<path class="st0" d="M209.4,184c-17,0-31.6,10.6-37.6,25.5H247C241,194.6,226.4,184,209.4,184z"/>
	</g>
</g>
</svg>
