<?xml version="1.0" encoding="utf-8"?>
<!-- Generator: Adobe Illustrator 21.0.2, SVG Export Plug-In . SVG Version: 6.00 Build 0)  -->
<svg version="1.1" id="Capa_1" xmlns="http://www.w3.org/2000/svg" xmlns:xlink="http://www.w3.org/1999/xlink" x="0px" y="0px"
	 viewBox="0 0 395.6 395.6" style="enable-background:new 0 0 395.6 395.6;" xml:space="preserve">
<style type="text/css">
	.st0{fill:#FFFFFF;}
</style>
<g>
	<path class="st0" d="M365.1,81.1c-2.3-29.8-27.3-53.3-57.6-53.3H57.8C25.9,27.8,0,53.7,0,85.6V310c0,31.9,25.9,57.8,57.8,57.8
		h279.9c31.9,0,57.8-25.9,57.8-57.8V132C395.6,110,383.2,90.9,365.1,81.1z M334,310c0,14.6-11.9,26.5-26.5,26.5H57.8
		c-14.6,0-26.5-11.9-26.5-26.5V85.6c0-14.6,11.9-26.5,26.5-26.5h249.6c14.6,0,26.5,11.9,26.5,26.5V310z"/>
	<path class="st0" d="M62.9,145.1h0.7c4.5,0,8.2-3.7,8.2-8.2v-28.8l24.4,33.5c1.5,2.1,4,3.4,6.6,3.4h0.8c0,0,0.1,0,0.1,0
		c0,0,0.1,0,0.1,0h0.7c4.5,0,8.2-3.7,8.2-8.2V83.4c0-4.5-3.7-8.2-8.2-8.2h-0.7c-4.5,0-8.2,3.7-8.2,8.2v28.8L71.2,78.6
		c-1.5-2.1-4-3.4-6.6-3.4h-0.8c0,0-0.1,0-0.1,0c0,0-0.1,0-0.1,0h-0.7c-4.5,0-8.2,3.7-8.2,8.2V137C54.7,141.5,58.4,145.1,62.9,145.1z
		"/>
	<path class="st0" d="M162.4,128.8H137v-11h20.8c4.5,0,8.2-3.7,8.2-8.2V109c0-4.5-3.7-8.2-8.2-8.2H137v-8.7h24.3
		c4.5,0,8.2-3.7,8.2-8.2v-0.7c0-4.5-3.7-8.2-8.2-8.2h-33.2c-4.5,0-8.2,3.7-8.2,8.2V137c0,4.5,3.7,8.2,8.2,8.2h34.3
		c4.5,0,8.2-3.7,8.2-8.2C170.6,132.5,166.9,128.8,162.4,128.8z"/>
	<path class="st0" d="M199,145.1h0.5c0,0,0,0,0,0c0,0,0,0,0,0h0.4c3.5,0,6.6-2.2,7.7-5.6l10.2-30.3l10.1,30.3
		c1.1,3.3,4.2,5.6,7.7,5.6h0.5c0,0,0,0,0,0s0,0,0,0h0.4c3.5,0,6.6-2.2,7.7-5.5L262.6,86c0.8-2.5,0.4-5.2-1.1-7.4
		c-1.5-2.1-4-3.4-6.6-3.4h-0.8c-3.5,0-6.6,2.3-7.7,5.6l-10.1,30.4l-10.1-30.4c-1.1-3.3-4.2-5.6-7.7-5.6h-1.1c-3.5,0-6.6,2.3-7.7,5.6
		l-10.1,30.4l-10.1-30.4c-1.1-3.3-4.2-5.6-7.7-5.6h-0.8c-2.6,0-5.1,1.3-6.6,3.4c-1.5,2.1-1.9,4.9-1.1,7.4l18.2,53.6
		C192.4,142.9,195.5,145.1,199,145.1z"/>
	<path class="st0" d="M289.5,145.1c18.1,0,26.2-10.5,26.2-20.9c0.1-16.2-14-20.4-22.4-23c-9.3-2.8-10.2-4-10.2-6.2
		c0-1.4,3.3-2.8,8.1-2.8c3.2,0,7.1,1,9.4,2.3c3.8,2.3,8.8,1.1,11.1-2.7l0.3-0.5c1.2-1.8,1.5-4.1,1-6.2c-0.5-2.1-1.8-4-3.7-5.1
		c-5-3-11.8-4.9-18.1-4.9c-17.3,0-25.1,9.9-25.1,19.8c0,15.8,13.3,19.8,22.2,22.5c9.6,2.9,10.5,4.1,10.4,6.7c0,2.7-4.8,4-9.2,4
		c-4.3,0-9-1.8-11.8-4.6c-1.5-1.5-3.6-2.4-5.8-2.4c0,0,0,0,0,0c-2.2,0-4.2,0.9-5.8,2.4l-0.4,0.4c-1.5,1.5-2.4,3.6-2.4,5.8
		c0,2.2,0.9,4.3,2.5,5.8C271.8,141.5,280.9,145.1,289.5,145.1z"/>
	<path class="st0" d="M147.3,168.9H69.8c-8.6,0-15.7,7-15.7,15.7c0,8.6,7,15.7,15.7,15.7h77.6c8.6,0,15.7-7,15.7-15.7
		C163,175.9,156,168.9,147.3,168.9z"/>
	<path class="st0" d="M147.3,221.1H69.8c-8.6,0-15.7,7-15.7,15.7c0,8.6,7,15.7,15.7,15.7h77.6c8.6,0,15.7-7,15.7-15.7
		C163,228.1,156,221.1,147.3,221.1z"/>
	<path class="st0" d="M147.3,273.3H69.8c-8.6,0-15.7,7-15.7,15.7c0,8.6,7,15.7,15.7,15.7h77.6c8.6,0,15.7-7,15.7-15.7
		C163,280.3,156,273.3,147.3,273.3z"/>
	<path class="st0" d="M306.6,166.7H187c-5,0-9.1,4.1-9.1,9.1v122c0,5,4.1,9.1,9.1,9.1h119.6c5,0,9.1-4.1,9.1-9.1v-122
		C315.7,170.8,311.6,166.7,306.6,166.7z"/>
</g>
</svg>
