<?xml version="1.0" encoding="utf-8"?>
<!-- Generator: Adobe Illustrator 21.0.2, SVG Export Plug-In . SVG Version: 6.00 Build 0)  -->
<svg version="1.1" id="Capa_1" xmlns="http://www.w3.org/2000/svg" xmlns:xlink="http://www.w3.org/1999/xlink" x="0px" y="0px"
	 viewBox="0 0 229 229" style="enable-background:new 0 0 229 229;" xml:space="preserve">
<style type="text/css">
	.st0{fill:#FFFFFF;}
</style>
<path class="st0" d="M229,185v11.4c0,4.1-3.4,7.5-7.5,7.5H132c-4.1,0-7.5-3.4-7.5-7.5V185c0-4.1,3.4-7.5,7.5-7.5h89.5
	C225.6,177.5,229,180.9,229,185z M216.2,126.9l-3-7.3c-1.7-4.2-5.7-6.9-10.3-7c-0.1-0.5-0.2-0.9-0.4-1.4l-2.4-5.8
	c1.5-0.8,2.7-2.1,3.3-3.7c0.8-1.8,0.8-3.9,0-5.7l-12-29.1c-1.5-3.6-5.4-5.4-9-4.4l-2.4-5.8c-0.2-0.5-0.4-0.9-0.7-1.3
	c3-3.2,4.1-7.9,2.3-12.2l-3-7.3c-2.7-6.6-9.1-10.9-16.3-10.9c-2.3,0-4.5,0.4-6.7,1.3l-38.5,15.8c-9,3.7-13.3,14-9.6,23l3,7.3
	c1.7,4.2,5.7,6.9,10.3,7c0.1,0.5,0.2,0.9,0.4,1.4l2.4,5.8c-1.5,0.8-2.7,2.1-3.3,3.7c-0.6,1.5-0.7,3.2-0.3,4.8l-1.9,0.8
	c-1.8,0.8-3.3,2.2-4.1,4c-0.5,1.2-0.7,2.6-0.5,3.9l-28.3,11.6c-0.6-0.5-1.3-0.9-2-1.3c-1.8-0.8-3.9-0.8-5.7,0L4.6,144.4
	c-3.8,1.6-5.7,6-4.1,9.8l5.8,14.2c0.8,1.8,2.2,3.3,4.1,4.1c0.9,0.4,1.9,0.6,2.9,0.6c1,0,1.9-0.2,2.9-0.6l73.1-30.1
	c2.7-1.1,4.4-3.6,4.6-6.4l28.3-11.6c0.8,1.1,1.9,1.9,3.1,2.4c0.9,0.4,1.9,0.6,2.9,0.6c1,0,1.9-0.2,2.9-0.6l1.9-0.8
	c1.4,2.4,3.9,3.8,6.5,3.8c0.7,0,1.4-0.1,2.1-0.3l2.4,5.8c0.2,0.5,0.4,0.9,0.7,1.3c-3,3.2-4.1,7.9-2.3,12.2l3,7.3
	c2.7,6.6,9.1,10.9,16.3,10.9c2.3,0,4.5-0.4,6.7-1.3l38.5-15.8C215.6,146.2,219.9,135.9,216.2,126.9z"/>
</svg>
