<?xml version="1.0" encoding="utf-8"?>
<!-- Generator: Adobe Illustrator 21.0.2, SVG Export Plug-In . SVG Version: 6.00 Build 0)  -->
<svg version="1.1" id="Capa_1" xmlns="http://www.w3.org/2000/svg" xmlns:xlink="http://www.w3.org/1999/xlink" x="0px" y="0px"
	 viewBox="0 0 512 512" style="enable-background:new 0 0 512 512;" xml:space="preserve">
<style type="text/css">
	.st0{fill:#FFFFFF;}
</style>
<g>
	<g>
		<path class="st0" d="M433.6,119.4c-1.5,1.3-3.3,2.2-5.3,2.5c-42.9,6.5-73.8-3.6-98.6-11.8c-15.3-5-28.4-9.4-41.7-9.4
			c-22.4,0-39.8,11.4-56.6,22.4c-3.9,2.6-7.7,5.1-11.5,7.3L164.4,186c-7.6,7.6-9.5,19.2-4.7,28.8c4.2,8.5,12.8,13.8,22.3,13.8h8.5
			c5.8,0,11.2-1.9,15.7-5.5c4.1-3.3,8.8-7.2,13.8-11.4c27.3-22.8,49.4-40.8,64.2-46.3c1.2-0.5,2.5-0.7,3.8-0.7c2.5,0,5,0.9,7,2.6
			l154.2,133.6l62.8-24.9V70.5L433.6,119.4z"/>
	</g>
</g>
<g>
	<g>
		<path class="st0" d="M96.5,292.6c-7,0-13.5,3.5-17.3,9.3l-11.6,17.5c-2.3,3.4-3.5,7.4-3.5,11.6v4.8c0,11.5,9.3,20.8,20.8,20.8
			c7,0,13.5-3.5,17.3-9.3l11.6-17.5c2.3-3.4,3.5-7.4,3.5-11.6v-4.8C117.3,302,108,292.6,96.5,292.6z"/>
	</g>
</g>
<g>
	<g>
		<path class="st0" d="M139.2,314h-0.7c-6.6,0-12.7,3.1-16.7,8.3l-21.6,28.8c-2.7,3.6-4.2,8-4.2,12.5v4.2c0,11.5,9.3,20.8,20.8,20.8
			h0.7c6.6,0,12.7-3.1,16.7-8.3l21.6-28.8c2.7-3.6,4.2-8,4.2-12.5v-4.2C160,323.3,150.7,314,139.2,314z"/>
	</g>
</g>
<g>
	<g>
		<path class="st0" d="M181.8,335.3h-0.7c-6.6,0-12.7,3.1-16.7,8.3l-21.6,28.8c-2.7,3.6-4.2,8-4.2,12.5v4.2
			c0,11.5,9.3,20.8,20.8,20.8h0.7c6.6,0,12.7-3.1,16.7-8.3l21.6-28.8c2.7-3.6,4.2-8,4.2-12.5v-4.2
			C202.7,344.6,193.3,335.3,181.8,335.3z"/>
	</g>
</g>
<g>
	<g>
		<path class="st0" d="M224.5,356.6h-0.7c-6.6,0-12.7,3.1-16.7,8.3l-21.6,28.8c-2.7,3.6-4.2,8-4.2,12.5v4.2
			c0,11.5,9.3,20.8,20.8,20.8h0.7c6.6,0,12.7-3.1,16.7-8.3l21.6-28.8c2.7-3.6,4.2-8,4.2-12.5v-4.2h0
			C245.3,366,236,356.6,224.5,356.6z"/>
	</g>
</g>
<g>
	<g>
		<path class="st0" d="M279.2,420.3l-19.3-16.4c-0.6,1-0.9,2.2-1.6,3.2l-13.7,18.3l14.4,13.3c4.6,4.5,11.3,4.3,15.3,0.3
			C279.5,433.5,281.6,423.4,279.2,420.3z"/>
	</g>
</g>
<g>
	<g>
		<path class="st0" d="M441.6,323.9l-155.4-136c-13.7,7.6-35.8,26.1-52.5,40.1c-5.1,4.3-9.8,8.2-14,11.6
			c-8.3,6.8-18.4,10.4-29.2,10.4H182c-17.7,0-33.5-9.8-41.4-25.6c-9-17.8-5.5-39.3,8.7-53.4l59.6-58.7c3.1-1.9,6.1-3.9,9.3-5.9
			c-33.5-6.8-71.5-7.3-113.9-0.6c-21.5,3.5-43.2-2.6-59.8-16.3L0,70.1v205.8L55.5,299l5.9-8.9c7.8-11.7,20.9-18.8,35.1-18.8
			c15.9,0,29.6,8.9,36.8,22c1.7-0.2,3.4-0.6,5.1-0.6c16.4,0,30.3,8.9,37.5,22c1.7-0.2,3.4-0.6,5.2-0.6c16.4,0,30.3,8.9,37.5,22
			c1.7-0.2,3.4-0.6,5.2-0.6h0.7c23.3,0,42.2,18.9,42.2,42.2v4.2l26.8,22.8c0,0,0.1,0.1,0.1,0.1l10.2,8.7c5.9,4.7,13.7,7.5,21.6,7.5
			c8.8,0,16-7.2,16-16c0-4.8-2.1-9.2-5.8-12.3l-97.1-80.9c-4.5-3.8-5.1-10.5-1.4-15c3.8-4.5,10.5-5.1,15-1.3l119.9,99.9
			c3.3,2.7,7.4,4.2,11.7,4.2h3.1c10.1,0,18.3-8.2,18.3-18.3c0-5.3-2.2-10.3-6.2-13.8l-118-98.3c-4.5-3.8-5.1-10.5-1.3-15
			c3.8-4.5,10.5-5.1,15-1.4l117.6,98c0.2,0.1,0.4,0.3,0.6,0.5l1.7,1.5c3.3,2.8,7.6,4.3,11.9,4.3h2.9c10.2,0,18.6-8.3,18.6-18.6
			C448,332.6,445.7,327.5,441.6,323.9z"/>
	</g>
</g>
</svg>
